<svg xmlns="http://www.w3.org/2000/svg" width="1024" height="1024"><path fill="#01A491" d="M731.5 823.71c-2.75-.03-6.35.19-8 .49-1.65.31-3.45.4-4 .19-.55-.2-99.78-.57-220.5-.83-120.73-.25-221.98-.68-225-.94-8-.71-16.13-2.14-19-3.34-1.38-.58-5.2-1.83-8.5-2.77-3.3-.95-6.68-2.3-7.5-3-2.3-1.96-10.15-5.51-12.19-5.51-.99 0-1.81-.66-1.81-1.47 0-.82-1.42-2.21-3.15-3.11-1.74-.9-4.31-3.04-5.71-4.77-1.41-1.73-4.27-4.82-6.35-6.86s-3.95-4.74-4.14-6-.98-2.29-1.75-2.29c-.84 0-1.42-1.07-1.45-2.68-.02-1.54-1.2-3.84-2.75-5.39-2.6-2.6-3.13-4.37-2.74-9.18.1-1.23-.82-3.65-2.05-5.37-1.46-2.05-2.48-5.43-2.96-9.76-.4-3.64-1.46-12.02-2.35-18.62-1.46-10.82-1.57-33.01-1.2-225.5.22-117.42.6-215.3.84-217.5 1.27-11.75 2.15-15.58 6.33-27.64 1.27-3.66 2.1-6.86 1.85-7.11-.26-.26.22-1.03 1.06-1.73.83-.7 1.52-1.75 1.52-2.34 0-1.24 4.68-8.28 7.25-10.9.96-.98 1.75-2.47 1.75-3.31s.79-1.83 1.75-2.19c2.2-.83 8.25-6.96 8.25-8.36 0-.57.41-.78.92-.47 1.2.74 4.27-2.33 3.53-3.53-.59-.96.75-1.29 3.87-.96 1.11.12 2.04-.63 2.37-1.89.52-1.99 7.86-6.07 10.92-6.07.75 0 3.95-1.35 7.13-2.99 3.47-1.8 8.5-3.37 12.66-3.95 3.79-.52 7.36-1.42 7.95-2.01 1.4-1.4 4.39-1.34 4.87.1.27.82 1.78.68 5.34-.51 4.56-1.51 23.21-1.64 227.46-1.53 122.36.06 225.3.05 228.74-.03 3.45-.07 7.11.32 8.14.87s5.63 1.28 10.23 1.63 8.74.86 9.19 1.13 3.73 1.1 7.28 1.85c3.56.74 7.69 2.22 9.18 3.28 1.5 1.06 4.75 2.53 7.22 3.27 2.47.73 6.75 3.03 9.5 5.11 2.75 2.07 5.49 3.77 6.1 3.78 1.6 0 4.53 3.54 3.65 4.41-.41.42-.09.61.71.42.81-.18 1.93.68 2.49 1.92s1.37 2.25 1.79 2.25.76.56.76 1.25 1.01 2.45 2.25 3.91c3.13 3.71 13.03 19.84 12.18 19.84-.25 0 .22 1.63 1.06 3.62.83 1.99 1.51 5.06 1.51 6.81s.66 4.06 1.47 5.13 1.48 3.54 1.5 5.49.44 3.98.95 4.5c.5.52 1.13 3.65 1.41 6.95.27 3.3 1 12.52 1.63 20.5 1.67 21.08.98 427.25-.73 431.5-.66 1.65-1.64 6.12-2.17 9.94-.58 4.15-1.78 8.05-3.01 9.71-1.13 1.52-2.05 4.27-2.05 6.12 0 1.99-1.01 4.71-2.5 6.73-1.38 1.86-2.5 4.43-2.5 5.69 0 1.27-.9 3.21-2 4.31s-2 2.27-2 2.59c0 1.3-14.37 16.41-15.61 16.41-.72 0-1.78.85-2.33 1.89-.56 1.05-2.46 2.4-4.22 3.02-1.77.61-3.91 1.73-4.78 2.47-.86.75-4.71 2.59-8.56 4.1s-7.45 3.1-8 3.53-3.14 1.07-5.76 1.42c-2.62.34-5.77 1.01-7 1.48-3.21 1.21-20.39 3.41-23.74 3.04-.83-.09-3.75-.2-6.5-.24M521.78 648.75c1.25.41 16.87.88 34.71 1.03 1.76.02 3.45.03 5.06.05 23.51.21 30.86.28 33.78-3.28 1.53-1.86 1.86-4.71 2.65-9.05 1.67-9.12 2.66-12.98 3.84-15 1.44-2.47 4.18-10.14 4.82-13.5.27-1.38.68-3.48.92-4.67.24-1.2 1.52-3.46 2.85-5.04 1.5-1.78 2.59-4.6 2.89-7.47.3-2.85 1.28-5.4 2.59-6.71 2.17-2.17 2.45-3.06 2.16-6.76-.09-1.19.69-2.76 1.74-3.5s2.71-2.93 3.68-4.85 2.36-4.18 3.09-5.01c.72-.83 1.52-2.66 1.78-4.08.46-2.52 6.76-13.13 9.35-15.73.72-.73 1.31-2.24 1.31-3.37 0-1.12 1.74-3.68 3.86-5.68 3.86-3.63 5.37-7.4 6.65-16.6.68-4.89-2.64-13.73-5.98-15.92-1.26-.82-2.59-2.73-2.97-4.24s-2-4.4-3.6-6.42-2.58-4.03-2.18-4.47c.39-.44.26-.54-.31-.22-.91.52-2.12-.98-5.99-7.38-2.64-4.35-8.83-13.44-9.46-13.88-1.28-.89-3.02-4.82-3.02-6.81 0-1.07-.72-2.54-1.6-3.28-.89-.73-2.01-2.39-2.5-3.68s-1.31-2.09-1.83-1.78c-.91.57-1.29-.29-2.51-5.74-.34-1.54-1.06-2.52-1.59-2.19s-.97-.56-.97-1.97c0-1.49-1.26-3.89-3-5.71-1.65-1.73-3.44-4.76-3.98-6.74-.53-1.98-1.79-4.11-2.8-4.74s-2.39-2.99-3.07-5.25-1.62-4.11-2.09-4.11c-.48 0-1.36-1.24-1.96-2.75-.61-1.51-1.99-4.21-3.08-6s-2.18-4.37-2.43-5.73-1.54-3.94-2.89-5.74c-3.22-4.34-14.7-27.56-14.7-29.75 0-.95-.89-2.52-1.97-3.51-1.09-.98-2.25-2.74-2.59-3.9-.34-1.17-2.43-5.95-4.66-10.62-2.22-4.67-4.47-9.62-5-11-1.11-2.88-3.1-6.77-6.44-12.6-1.29-2.26-2.51-5.56-2.72-7.34s-1.33-4.53-2.5-6.11-2.12-3.3-2.12-3.83c0-.52-.53-1.13-1.17-1.34-.64-.22-1.25-2.06-1.35-4.1-.11-2.03-.93-4.52-1.83-5.52-.91-1-1.65-2.34-1.65-2.99 0-.64-.41-1.17-.92-1.17-.5 0-1.69-2.14-2.64-4.75-3.64-10.05-8.44-19.2-10.92-20.83-4.6-3.01-13.52.07-13.52 4.68 0 .98-.46 2.07-1.03 2.42-.56.35-.93 1.16-.82 1.81.27 1.58-2.26 6.67-3.31 6.67-.46 0-.84 1.32-.84 2.94 0 1.89-.78 3.49-2.16 4.46-1.19.84-2.23 2.32-2.32 3.31-.08.98-.62 2.69-1.21 3.79s-1.41 3.54-1.81 5.43c-.76 3.55-3.71 9.45-6.03 12.07-.73.83-1.33 1.85-1.34 2.28-.02 1.42-5.38 12.21-6.38 12.85-.54.35-1.21 2.6-1.49 5-.29 2.48-1.73 6.15-3.36 8.51-1.56 2.28-3.78 6.63-4.91 9.67-1.14 3.04-2.96 6.66-4.05 8.04-2.2 2.8-5.08 10.18-4.28 10.98.55.55-3.64 6.94-4.92 7.51-.41.18-.5.74-.19 1.25.31.5.06.91-.55.91s-.84.45-.5 1 .07 1-.61 1c-.67 0-.93.3-.56.66.36.37-.46 2.14-1.83 3.94-1.38 1.79-2.5 4.22-2.5 5.39s-.41 1.87-.91 1.56c-.51-.31-1.66 1.58-2.57 4.19-.92 2.62-2.29 5.88-3.05 7.26-2.68 4.84-6.25 11.54-8.37 15.75-1.18 2.34-2.54 4.25-3.01 4.25-.78 0-1.88 2.84-2.68 6.91-.16.78-1.43 2.48-2.85 3.79-1.41 1.31-2.56 2.97-2.56 3.69s-.9 2.34-2 3.61-2 3.11-2 4.1-.6 2.16-1.34 2.6c-1.98 1.18-4.78 5.86-4.45 7.43.16.76-.31 1.25-1.03 1.1-.73-.16-1.11.08-.84.51.61.99-2.32 7.45-4.49 9.93-2.91 3.31-13.33 20.81-13 21.83.17.55-.02.67-.42.26-1.03-1.03-3.43 1.14-3.44 3.11-.01.9-1.81 3.56-4 5.92-2.2 2.36-3.99 4.71-3.99 5.21s-1.07 2.49-2.38 4.42c-3.8 5.6-4.04 9.41-1.1 17.23 1.42 3.77 3.67 7.75 4.99 8.85 1.33 1.1 3.71 4.48 5.28 7.51s4.28 7.49 6.03 9.9c1.75 2.42 3.18 5.23 3.18 6.26 0 1.95 4.18 9.21 5.93 10.29 1.42.87 5.07 9.38 5.07 11.8 0 1.11 1.12 3.05 2.5 4.33 1.85 1.71 2.5 3.34 2.5 6.23 0 2.31.77 4.89 1.87 6.3 1.03 1.31 2.68 4.85 3.66 7.88s2.15 6.4 2.6 7.5c2.58 6.32 4.16 11.47 4.6 15 .27 2.2.83 4.45 1.25 5 .41.55 1.04 2.9 1.39 5.22 1.01 6.63 2.58 9.27 5.54 9.33 1.42.03 18.06.07 36.97.09 35.43.04 37.02-.13 35.65-3.86-.25-.68-.72-28.58-1.06-62-.54-53.49-.8-60.99-2.2-62.53-.87-.96-2.39-1.75-3.39-1.75-.99 0-2.61-.84-3.59-1.86-.98-1.03-2.82-2.4-4.08-3.06-1.27-.66-2.54-2.49-2.87-4.13-.32-1.62-.98-2.95-1.46-2.95-.49 0-.88-.58-.88-1.29s-.9-3.05-2-5.21c-2.78-5.45-2.85-17.43-.11-19.9 1.78-1.61 3.63-6.93 3.16-9.1-.12-.55.1-.68.49-.3.38.39 1.27.16 1.97-.5 5.44-5.15 14.24-10.11 19.7-11.1 4.32-.79 13.13 1.46 19.45 4.95 2.28 1.27 4.35 2.1 4.6 1.85s1.08.32 1.85 1.27c.92 1.13.97 1.46.14.96-.69-.41-1.25-.3-1.25.24 0 .55.83 1.26 1.84 1.58s2.4 1.81 3.09 3.32c.69 1.5 2.11 4.39 3.16 6.43 2.3 4.46 2.56 13.8.48 17.65-.79 1.46-1.68 3.77-1.97 5.15-.77 3.63-9.21 12.81-13.37 14.55-1.24.52-2.24.81-3.05 1.38-3.37 2.39-3.39 9.53-3.5 57.43-.01 3.06-.01 6.29-.02 9.69L519.5 648Zm-107 99.34c.52 1.09 190.04 1.01 190.71-.08.35-.55 1.84-1.02 3.32-1.04 3.42-.04 5.43-1.59 7.65-5.89 1.44-2.79 1.82-6.55 2.07-20.5.17-9.39.81-21.67 1.43-27.28 1.36-12.24-.14-20.29-4.48-24.05-2.48-2.15-3.41-2.25-20.79-2.32-30.07-.13-149.02-.85-166.31-1.02-9.18-.09-16.88.27-17.9.84-.98.55-2.53 3.42-3.43 6.37-1.41 4.57-1.62 9.73-1.39 34.38.29 32.12.86 35.82 5.98 38.5 1.57.83 2.99 1.77 3.14 2.09"/><path fill="#089E88" d="m758.86 824.2-11.36 2.2-227 .18c-124.85.09-231.05-.21-236-.68-38.91-3.66-60.65-12.68-75.77-31.42-10.17-12.6-16.07-26.75-20-47.98l-2.23-12V496.95c0-193.41 0-209.48 3.55-224.72.43-1.85.91-3.68 1.45-5.81 7.04-27.79 27.74-49.63 56.5-59.61 3.02-1.05 10.45-2.87 16.5-4.06l11-2.15 230-.36c234.87-.36 241.6-.27 259.5 3.4 41.58 8.54 64.13 36.7 71.15 88.86 1.98 14.64 2 439.34.03 450.5-3.82 21.62-9.53 36.47-18.69 48.65-12.92 17.16-31 27.2-58.63 32.55m-27.36-.49c2.75.04 5.67.15 6.5.24 3.35.37 20.53-1.83 23.74-3.04 1.23-.47 4.38-1.14 7-1.48 2.62-.35 5.21-.99 5.76-1.42s4.15-2.02 8-3.53 7.7-3.35 8.56-4.1c.87-.74 3.01-1.86 4.78-2.47 1.76-.62 3.66-1.97 4.22-3.02.55-1.04 1.61-1.89 2.33-1.89 1.24 0 15.61-15.11 15.61-16.41 0-.32.9-1.49 2-2.59s2-3.04 2-4.31c0-1.26 1.12-3.83 2.5-5.69 1.49-2.02 2.5-4.74 2.5-6.73 0-1.85.92-4.6 2.05-6.12 1.23-1.66 2.43-5.56 3.01-9.71.53-3.82 1.51-8.29 2.17-9.94 1.71-4.25 2.4-410.42.73-431.5-.63-7.98-1.36-17.2-1.63-20.5-.28-3.3-.91-6.43-1.41-6.95-.51-.52-.93-2.55-.95-4.5s-.69-4.42-1.5-5.49-1.47-3.38-1.47-5.13-.68-4.82-1.51-6.81c-.84-1.99-1.31-3.62-1.06-3.62.85 0-9.05-16.13-12.18-19.84-1.24-1.46-2.25-3.22-2.25-3.91s-.34-1.25-.76-1.25-1.23-1.01-1.79-2.25-1.68-2.1-2.49-1.92c-.8.19-1.12 0-.71-.42.88-.87-2.05-4.41-3.65-4.41-.61-.01-3.35-1.71-6.1-3.78-2.75-2.08-7.03-4.38-9.5-5.11-2.47-.74-5.72-2.21-7.22-3.27-1.49-1.06-5.62-2.54-9.18-3.28-3.55-.75-6.83-1.58-7.28-1.85s-4.59-.78-9.19-1.13-9.2-1.08-10.23-1.63-4.69-.94-8.14-.87c-3.44.08-106.38.09-228.74.03-204.25-.11-222.9.02-227.46 1.53-3.56 1.19-5.07 1.33-5.34.51-.48-1.44-3.47-1.5-4.87-.1-.59.59-4.16 1.49-7.95 2.01-4.16.58-9.19 2.15-12.66 3.95-3.18 1.64-6.38 2.99-7.13 2.99-3.06 0-10.4 4.08-10.92 6.07-.33 1.26-1.26 2.01-2.37 1.89-3.12-.33-4.46 0-3.87.96.74 1.2-2.33 4.27-3.53 3.53-.51-.31-.92-.1-.92.47 0 1.4-6.05 7.53-8.25 8.36-.96.36-1.75 1.35-1.75 2.19s-.79 2.33-1.75 3.31c-2.57 2.62-7.25 9.66-7.25 10.9 0 .59-.69 1.64-1.52 2.34-.84.7-1.32 1.47-1.06 1.73.25.25-.58 3.45-1.85 7.11-4.18 12.06-5.06 15.89-6.33 27.64-.24 2.2-.62 100.08-.84 217.5-.37 192.49-.26 214.68 1.2 225.5.89 6.6 1.95 14.98 2.35 18.62.48 4.33 1.5 7.71 2.96 9.76 1.23 1.72 2.15 4.14 2.05 5.37-.39 4.81.14 6.58 2.74 9.18 1.55 1.55 2.73 3.85 2.75 5.39.03 1.61.61 2.68 1.45 2.68.77 0 1.56 1.03 1.75 2.29s2.06 3.96 4.14 6 4.94 5.13 6.35 6.86c1.4 1.73 3.97 3.87 5.71 4.77 1.73.9 3.15 2.29 3.15 3.11 0 .81.82 1.47 1.81 1.47 2.04 0 9.89 3.55 12.19 5.51.82.7 4.2 2.05 7.5 3 3.3.94 7.12 2.19 8.5 2.77 2.87 1.2 11 2.63 19 3.34 3.02.26 104.27.69 225 .94 120.72.26 219.95.63 220.5.83.55.21 2.35.12 4-.19 1.65-.3 5.25-.52 8-.49M521.78 648.75l-2.28-.75.16-62.95c.01-3.4.01-6.63.02-9.69.11-47.9.13-55.04 3.5-57.43.81-.57 1.81-.86 3.05-1.38 4.16-1.74 12.6-10.92 13.37-14.55.29-1.38 1.18-3.69 1.97-5.15 2.08-3.85 1.82-13.19-.48-17.65-1.05-2.04-2.47-4.93-3.16-6.43-.69-1.51-2.08-3-3.09-3.32s-1.84-1.03-1.84-1.58c0-.54.56-.65 1.25-.24.83.5.78.17-.14-.96-.77-.95-1.6-1.52-1.85-1.27s-2.32-.58-4.6-1.85c-6.32-3.49-15.13-5.74-19.45-4.95-5.46.99-14.26 5.95-19.7 11.1-.7.66-1.59.89-1.97.5-.39-.38-.61-.25-.49.3.47 2.17-1.38 7.49-3.16 9.1-2.74 2.47-2.67 14.45.11 19.9 1.1 2.16 2 4.5 2 5.21s.39 1.29.88 1.29c.48 0 1.14 1.33 1.46 2.95.33 1.64 1.6 3.47 2.87 4.13 1.26.66 3.1 2.03 4.08 3.06.98 1.02 2.6 1.86 3.59 1.86 1 0 2.52.79 3.39 1.75 1.4 1.54 1.66 9.04 2.2 62.53.34 33.42.81 61.32 1.06 62 1.37 3.73-.22 3.9-35.65 3.86-18.91-.02-35.55-.06-36.97-.09-2.96-.06-4.53-2.7-5.54-9.33-.35-2.32-.98-4.67-1.39-5.22-.42-.55-.98-2.8-1.25-5-.44-3.53-2.02-8.68-4.6-15-.45-1.1-1.62-4.47-2.6-7.5s-2.63-6.57-3.66-7.88c-1.1-1.41-1.87-3.99-1.87-6.3 0-2.89-.65-4.52-2.5-6.23-1.38-1.28-2.5-3.22-2.5-4.33 0-2.42-3.65-10.93-5.07-11.8-1.75-1.08-5.93-8.34-5.93-10.29 0-1.03-1.43-3.84-3.18-6.26-1.75-2.41-4.46-6.87-6.03-9.9s-3.95-6.41-5.28-7.51c-1.32-1.1-3.57-5.08-4.99-8.85-2.94-7.82-2.7-11.63 1.1-17.23 1.31-1.93 2.38-3.92 2.38-4.42s1.79-2.85 3.99-5.21c2.19-2.36 3.99-5.02 4-5.92.01-1.97 2.41-4.14 3.44-3.11.4.41.59.29.42-.26-.33-1.02 10.09-18.52 13-21.83 2.17-2.48 5.1-8.94 4.49-9.93-.27-.43.11-.67.84-.51.72.15 1.19-.34 1.03-1.1-.33-1.57 2.47-6.25 4.45-7.43.74-.44 1.34-1.61 1.34-2.6s.9-2.83 2-4.1 2-2.89 2-3.61 1.15-2.38 2.56-3.69c1.42-1.31 2.69-3.01 2.85-3.79.8-4.07 1.9-6.91 2.68-6.91.47 0 1.83-1.91 3.01-4.25 2.12-4.21 5.69-10.91 8.37-15.75.76-1.38 2.13-4.64 3.05-7.26.91-2.61 2.06-4.5 2.57-4.19.5.31.91-.39.91-1.56s1.12-3.6 2.5-5.39c1.37-1.8 2.19-3.57 1.83-3.94-.37-.36-.11-.66.56-.66.68 0 .95-.45.61-1s-.11-1 .5-1 .86-.41.55-.91c-.31-.51-.22-1.07.19-1.25 1.28-.57 5.47-6.96 4.92-7.51-.8-.8 2.08-8.18 4.28-10.98 1.09-1.38 2.91-5 4.05-8.04 1.13-3.04 3.35-7.39 4.91-9.67 1.63-2.36 3.07-6.03 3.36-8.51.28-2.4.95-4.65 1.49-5 1-.64 6.36-11.43 6.38-12.85.01-.43.61-1.45 1.34-2.28 2.32-2.62 5.27-8.52 6.03-12.07.4-1.89 1.22-4.33 1.81-5.43s1.13-2.81 1.21-3.79c.09-.99 1.13-2.47 2.32-3.31 1.38-.97 2.16-2.57 2.16-4.46 0-1.62.38-2.94.84-2.94 1.05 0 3.58-5.09 3.31-6.67-.11-.65.26-1.46.82-1.81.57-.35 1.03-1.44 1.03-2.42 0-4.61 8.92-7.69 13.52-4.68 2.48 1.63 7.28 10.78 10.92 20.83.95 2.61 2.14 4.75 2.64 4.75.51 0 .92.53.92 1.17 0 .65.74 1.99 1.65 2.99.9 1 1.72 3.49 1.83 5.52.1 2.04.71 3.88 1.35 4.1.64.21 1.17.82 1.17 1.34 0 .53.95 2.25 2.12 3.83s2.29 4.33 2.5 6.11 1.43 5.08 2.72 7.34c3.34 5.83 5.33 9.72 6.44 12.6.53 1.38 2.78 6.33 5 11 2.23 4.67 4.32 9.45 4.66 10.62.34 1.16 1.5 2.92 2.59 3.9 1.08.99 1.97 2.56 1.97 3.51 0 2.19 11.48 25.41 14.7 29.75 1.35 1.8 2.64 4.38 2.89 5.74s1.34 3.94 2.43 5.73 2.47 4.49 3.08 6c.6 1.51 1.48 2.75 1.96 2.75.47 0 1.41 1.85 2.09 4.11s2.06 4.62 3.07 5.25 2.27 2.76 2.8 4.74c.54 1.98 2.33 5.01 3.98 6.74 1.74 1.82 3 4.22 3 5.71 0 1.41.44 2.3.97 1.97s1.25.65 1.59 2.19c1.22 5.45 1.6 6.31 2.51 5.74.52-.31 1.34.49 1.83 1.78s1.61 2.95 2.5 3.68c.88.74 1.6 2.21 1.6 3.28 0 1.99 1.74 5.92 3.02 6.81.63.44 6.82 9.53 9.46 13.88 3.87 6.4 5.08 7.9 5.99 7.38.57-.32.7-.22.31.22-.4.44.58 2.45 2.18 4.47s3.22 4.91 3.6 6.42 1.71 3.42 2.97 4.24c3.34 2.19 6.66 11.03 5.98 15.92-1.28 9.2-2.79 12.97-6.65 16.6-2.12 2-3.86 4.56-3.86 5.68 0 1.13-.59 2.64-1.31 3.37-2.59 2.6-8.89 13.21-9.35 15.73-.26 1.42-1.06 3.25-1.78 4.08-.73.83-2.12 3.09-3.09 5.01s-2.63 4.11-3.68 4.85-1.83 2.31-1.74 3.5c.29 3.7.01 4.59-2.16 6.76-1.31 1.31-2.29 3.86-2.59 6.71-.3 2.87-1.39 5.69-2.89 7.47-1.33 1.58-2.61 3.84-2.85 5.04-.24 1.19-.65 3.29-.92 4.67-.64 3.36-3.38 11.03-4.82 13.5-1.18 2.02-2.17 5.88-3.84 15-.79 4.34-1.12 7.19-2.65 9.05-2.92 3.56-10.27 3.49-33.78 3.28-1.61-.02-3.3-.03-5.06-.05-17.84-.15-33.46-.62-34.71-1.03m-74.8-2.52c8.54.15 24.18.43 34.77.62l19.25.34V523.15l-2.45-1.83c-1.35-1-4.31-3.17-6.58-4.82-9.87-7.16-15.58-21.78-13.07-33.46 2.41-11.24 8.67-19.09 19.05-23.91 4.56-2.11 7.06-2.58 14.05-2.6 7.32-.03 9.29.36 14.19 2.76 7.1 3.49 15.02 11.94 17.2 18.35.92 2.7 1.61 7.96 1.61 12.29 0 6.25-.5 8.61-2.85 13.57-2.97 6.23-10.27 13.96-16 16.92l-3.17 1.64.52 124.44h68.68l4.31-15.02c10.04-35 25.51-69.05 43.79-96.37 7.69-11.49 8.98-15.78 6.3-20.95-.9-1.75-6.36-10.41-12.14-19.25-24.41-37.37-46.95-76.98-67.4-118.41-11.29-22.87-33.86-71.59-43.08-93-5.29-12.27-8.22-16.5-11.46-16.5-4.21 0-7.11 4.14-14.03 20-39.71 90.98-73 154.41-110.48 210.5l-.29.43c-8.61 12.89-12.02 17.99-11.56 22.72.31 3.15 2.34 6.13 5.69 11.14 20.91 31.21 38.28 69.78 47.27 104.94l2.36 9.22Zm-32.2 101.86c-.15-.32-1.57-1.26-3.14-2.09-5.12-2.68-5.69-6.38-5.98-38.5-.23-24.65-.02-29.81 1.39-34.38.9-2.95 2.45-5.82 3.43-6.37 1.02-.57 8.72-.93 17.9-.84 17.29.17 136.24.89 166.31 1.02 17.38.07 18.31.17 20.79 2.32 4.34 3.76 5.84 11.81 4.48 24.05-.62 5.61-1.26 17.89-1.43 27.28-.25 13.95-.63 17.71-2.07 20.5-2.22 4.3-4.23 5.85-7.65 5.89-1.48.02-2.97.49-3.32 1.04-.67 1.09-190.19 1.17-190.71.08m-.02-3.66c2.37 1.29 15.58 1.49 97.24 1.52 73.08.01 95.04-.26 96.9-1.21 1.33-.68 3.35-2.51 4.5-4.06 1.96-2.64 2.16-4.69 2.98-31.67.48-15.86.57-30.46.2-32.43-.23-1.21-.22-2.19-.59-3-1.81-3.93-12.64-3.7-103.28-4.28l-98.54-.63-6.28 6.28.31 30.78c.33 33.77.62 35.48 6.56 38.7"/><path fill="#FEFEFE" d="M0 512V0h1024v1024H0zm758.86 312.2c27.63-5.35 45.71-15.39 58.63-32.55 9.16-12.18 14.87-27.03 18.69-48.65 1.97-11.16 1.95-435.86-.03-450.5-7.02-52.16-29.57-80.32-71.15-88.86-17.9-3.67-24.63-3.76-259.5-3.4l-230 .36-11 2.15c-6.05 1.19-13.48 3.01-16.5 4.06-28.76 9.98-49.46 31.82-56.5 59.61-5.14 20.29-5 13.4-5 248.58v219.5l2.23 12c3.93 21.23 9.83 35.38 20 47.98 15.12 18.74 36.86 27.76 75.77 31.42 4.95.47 111.15.77 236 .68l227-.18zm-344.1-79.77c-5.94-3.22-6.23-4.93-6.56-38.7l-.31-30.78 3.14-3.14 3.14-3.14 98.54.63c109.29.7 102.55.22 103.87 7.28.37 1.97.28 16.57-.2 32.43-.82 26.98-1.02 29.03-2.98 31.67-1.15 1.55-3.17 3.38-4.5 4.06-1.86.95-23.82 1.22-96.9 1.21-81.66-.03-94.87-.23-97.24-1.52m32.22-98.2-15.52-.28-2.36-9.22c-8.99-35.16-26.36-73.73-47.27-104.94-8.44-12.61-8.48-12.38 6.16-34.29 37.48-56.09 70.77-119.52 110.48-210.5 6.92-15.86 9.82-20 14.03-20 3.24 0 6.17 4.23 11.46 16.5 9.22 21.41 31.79 70.13 43.08 93 20.45 41.43 42.99 81.04 67.4 118.41 5.78 8.84 11.24 17.5 12.14 19.25 2.68 5.17 1.39 9.46-6.3 20.95-18.28 27.32-33.75 61.37-43.79 96.37l-4.31 15.02H523.5l-.26-62.22-.26-62.22 3.17-1.64c5.73-2.96 13.03-10.69 16-16.92 2.35-4.96 2.85-7.32 2.85-13.57 0-4.33-.69-9.59-1.61-12.29-2.18-6.41-10.1-14.86-17.2-18.35-4.9-2.4-6.87-2.79-14.19-2.76-6.99.02-9.49.49-14.05 2.6-10.38 4.82-16.64 12.67-19.05 23.91-2.51 11.68 3.2 26.3 13.07 33.46 2.27 1.65 5.23 3.82 6.58 4.82l2.45 1.83v124.04l-19.25-.34c-10.59-.19-26.23-.47-34.77-.62"/></svg>